<!DOCTYPE svg PUBLIC "-//W3C//DTD SVG 20010904//EN" "http://www.w3.org/TR/2001/REC-SVG-20010904/DTD/svg10.dtd">
<svg version="1.0" xmlns="http://www.w3.org/2000/svg" width="327px" height="368px" viewBox="0 0 3270 3680" preserveAspectRatio="xMidYMid meet">
<g id="layer101" fill="#1f1f1f" stroke="none">
 <path d="M1203 3641 c-17 -11 -43 -40 -58 -65 -29 -49 -70 -169 -80 -231 -23 -152 -24 -155 -122 -302 -52 -79 -107 -152 -121 -164 -42 -33 -82 -20 -245 76 -139 82 -177 96 -177 62 0 -15 49 -63 100 -97 50 -34 221 -183 265 -231 45 -50 43 -73 -7 -77 -68 -6 -107 -79 -95 -178 9 -82 98 -145 180 -129 32 6 190 65 237 88 34 17 70 74 70 110 0 70 -56 188 -93 195 -10 2 -31 -8 -48 -22 -17 -14 -34 -26 -39 -26 -5 0 -14 17 -19 37 -9 32 -7 45 16 97 15 34 37 79 49 101 47 88 84 229 104 395 14 118 29 187 47 223 16 33 97 87 128 87 12 0 30 9 39 19 16 18 16 20 -6 35 -30 22 -86 20 -125 -3z"/>
 <path d="M1724 3380 c-64 -42 -121 -161 -149 -311 -58 -322 -88 -479 -98 -513 -16 -55 -58 -108 -122 -156 -59 -44 -95 -91 -95 -126 0 -11 -7 -41 -16 -67 -15 -43 -14 -50 2 -99 9 -29 36 -84 59 -123 23 -38 73 -122 111 -185 39 -63 76 -134 83 -157 17 -52 10 -126 -16 -162 -47 -64 -238 -117 -333 -91 -91 24 -196 175 -219 315 -7 39 -23 97 -36 130 -16 41 -25 88 -28 150 -6 113 -26 163 -88 219 -43 39 -54 44 -114 49 -144 14 -244 93 -320 255 -78 164 -88 182 -141 240 -36 40 -55 54 -67 49 -21 -8 -54 -60 -68 -107 -5 -19 -17 -60 -26 -90 -12 -39 -17 -96 -17 -195 -1 -123 2 -148 23 -205 12 -36 33 -81 45 -100 42 -67 51 -101 48 -190 -2 -52 4 -119 14 -173 17 -84 17 -90 0 -135 -10 -26 -27 -69 -37 -97 -33 -87 -26 -139 37 -271 40 -83 40 -89 14 -174 -55 -179 -60 -255 -36 -615 14 -208 17 -224 72 -311 57 -91 146 -124 226 -85 100 48 297 337 392 576 15 39 32 79 36 90 41 97 73 226 89 355 8 63 16 89 30 101 21 17 76 30 241 55 58 8 119 19 135 24 37 10 74 17 445 91 187 38 273 10 456 -147 208 -177 522 -400 644 -457 55 -26 77 -31 145 -31 70 0 85 3 122 27 61 39 75 65 74 140 0 73 -30 171 -91 304 -61 131 -194 313 -347 474 -75 78 -113 146 -113 202 0 52 -26 146 -46 169 -11 11 -62 51 -114 88 -69 49 -115 92 -170 159 -114 140 -127 173 -154 401 -21 177 -33 232 -64 310 -43 108 -115 211 -226 328 -92 96 -132 110 -192 72z"/>
 </g>

</svg>