<!DOCTYPE svg PUBLIC "-//W3C//DTD SVG 20010904//EN" "http://www.w3.org/TR/2001/REC-SVG-20010904/DTD/svg10.dtd">
<svg version="1.0" xmlns="http://www.w3.org/2000/svg" width="1178px" height="806px" viewBox="0 0 11780 8060" preserveAspectRatio="xMidYMid meet">
<g id="layer101" fill="#020202" stroke="none">
 <path d="M3752 7850 c-102 -16 -136 -26 -202 -59 -44 -23 -84 -41 -89 -41 -6 0 -23 12 -38 26 -15 15 -42 33 -60 40 -38 17 -146 18 -263 4 -129 -16 -170 -33 -228 -94 -57 -60 -83 -108 -140 -256 -23 -58 -59 -154 -82 -213 -23 -59 -53 -127 -66 -151 -47 -83 -149 -161 -259 -196 -66 -21 -120 -65 -154 -124 -41 -73 -138 -171 -192 -194 -24 -11 -63 -22 -86 -26 -61 -9 -127 -33 -181 -65 -85 -49 -132 -63 -252 -71 -141 -10 -271 -50 -451 -141 -67 -33 -153 -72 -192 -86 -40 -14 -135 -51 -212 -83 -77 -31 -173 -70 -214 -85 -45 -18 -92 -46 -121 -72 -66 -59 -75 -99 -65 -300 7 -155 22 -238 65 -357 19 -54 21 -79 21 -270 -1 -224 6 -282 54 -481 49 -198 154 -429 313 -685 113 -182 131 -205 287 -367 97 -102 147 -146 213 -186 53 -33 98 -69 115 -93 15 -21 48 -100 73 -174 81 -239 151 -348 345 -535 123 -119 173 -153 378 -258 104 -54 158 -77 167 -71 7 5 36 54 64 109 29 55 107 183 174 285 68 102 137 212 156 245 18 33 51 87 74 120 23 33 48 75 55 93 25 60 -10 201 -64 261 -45 49 -56 81 -48 138 l6 46 -39 -5 c-22 -3 -72 -20 -111 -37 -94 -41 -203 -43 -203 -5 0 23 34 84 89 158 74 99 69 127 -27 175 -74 37 -96 117 -72 257 15 81 43 146 102 232 59 86 97 167 150 321 45 131 64 171 106 224 47 59 110 101 192 130 41 14 126 47 188 72 112 46 114 47 275 56 171 9 247 25 291 60 26 20 108 153 199 321 26 48 59 96 73 107 26 20 92 46 99 39 3 -2 -9 -29 -26 -59 -56 -101 -89 -174 -125 -274 -73 -200 -173 -333 -330 -438 -39 -26 -84 -66 -101 -90 -40 -56 -194 -322 -274 -472 -132 -250 -150 -291 -194 -448 -25 -86 -57 -181 -72 -211 -28 -57 -26 -86 5 -86 10 0 47 -14 81 -31 53 -26 74 -46 139 -128 41 -53 108 -137 147 -186 217 -272 336 -556 400 -959 55 -343 119 -563 217 -746 162 -302 320 -496 535 -656 104 -78 173 -147 160 -160 -9 -9 -201 81 -265 125 -33 22 -89 72 -125 111 -133 143 -333 422 -381 532 -13 29 -40 89 -61 133 -71 153 -123 347 -165 615 -42 270 -53 327 -81 410 -81 238 -157 377 -316 582 -156 202 -229 267 -341 303 -51 16 -54 16 -73 -1 -38 -34 -14 -95 66 -170 36 -33 45 -64 45 -155 0 -101 -23 -169 -88 -255 -57 -77 -290 -458 -340 -557 -65 -129 -200 -568 -252 -817 -18 -85 -38 -177 -46 -205 -62 -228 -77 -296 -78 -361 -1 -63 2 -75 27 -107 49 -64 69 -70 277 -71 172 -2 191 -4 265 -29 44 -14 130 -54 190 -88 328 -183 362 -190 940 -189 368 1 493 9 566 37 32 12 82 17 189 18 80 2 158 8 173 14 34 13 96 54 194 129 l72 54 78 -30 c43 -16 148 -53 233 -82 85 -28 184 -67 220 -87 59 -32 334 -134 455 -169 247 -71 778 -84 1140 -29 265 41 382 78 534 170 165 100 255 160 305 205 33 30 89 68 123 83 l62 28 128 -65 c70 -35 157 -73 193 -84 36 -11 150 -48 254 -82 216 -70 611 -173 736 -191 106 -15 420 -6 542 16 201 36 493 160 639 271 114 87 241 244 293 364 86 195 110 310 104 488 -3 103 -5 116 -25 132 -21 17 -22 18 -4 34 11 10 23 45 30 89 18 102 75 253 211 566 75 171 129 416 113 515 -8 57 -37 110 -73 136 -37 26 -162 45 -230 35 -107 -16 -219 -113 -288 -251 -71 -142 -96 -261 -112 -541 -11 -196 -25 -288 -64 -417 -14 -44 -38 -133 -55 -197 -33 -126 -78 -242 -135 -343 -49 -87 -198 -234 -280 -275 -115 -59 -212 -74 -282 -45 -47 20 -38 26 76 49 125 26 269 101 299 158 10 19 8 35 -15 102 -31 94 -29 163 7 223 39 67 59 141 59 223 0 43 -5 90 -11 106 -24 63 -144 217 -219 281 -38 32 -151 92 -173 92 -8 0 -33 -29 -56 -64 -54 -84 -86 -111 -228 -191 -65 -36 -131 -79 -147 -93 -46 -44 -102 -133 -156 -249 -42 -89 -61 -118 -110 -164 -33 -31 -99 -78 -146 -104 -47 -27 -110 -69 -140 -93 -30 -25 -57 -42 -60 -39 -4 3 5 26 20 51 28 48 77 92 166 149 85 54 112 90 194 252 82 164 139 239 214 282 79 45 144 94 210 157 124 118 161 206 173 411 9 155 16 191 64 346 65 208 65 212 68 794 l2 530 -23 39 c-28 48 -35 37 144 231 437 473 542 557 868 690 241 98 341 161 428 269 107 134 142 250 142 486 1 116 -2 145 -23 209 -47 144 -113 207 -203 196 l-48 -6 -16 41 c-20 50 -56 81 -148 125 -138 66 -399 72 -533 11 l-55 -26 -37 31 c-91 72 -315 53 -459 -40 -79 -50 -171 -161 -201 -242 -28 -75 -32 -82 -41 -73 -5 5 -24 67 -41 137 -33 132 -48 163 -139 286 -25 33 -62 85 -83 116 -27 39 -61 71 -114 106 -126 83 -140 89 -313 135 -57 15 -121 40 -160 63 -161 95 -444 221 -562 249 -220 54 -477 79 -918 92 -314 8 -580 1 -730 -20 -176 -26 -341 -65 -384 -91 -38 -23 -58 -24 -97 -3 -41 21 -297 38 -370 24 -29 -6 -99 -30 -153 -55 -55 -25 -101 -44 -102 -42 -1 1 -12 22 -24 47 -12 25 -39 63 -60 85 -38 41 -76 102 -150 240 -123 231 -237 305 -467 305 -89 0 -134 -17 -190 -72 l-42 -41 -10 24 c-20 53 -143 132 -250 161 -111 30 -371 34 -539 8z m417 -80 c135 -19 254 -90 330 -194 18 -25 37 -46 44 -46 6 0 32 23 58 50 64 68 155 110 241 110 82 0 149 -33 231 -116 62 -61 83 -96 155 -254 21 -47 62 -116 90 -153 117 -153 116 -165 -11 -407 -54 -102 -132 -268 -174 -370 -89 -218 -111 -263 -169 -351 -66 -101 -145 -143 -325 -173 -52 -9 -168 -37 -259 -61 -91 -24 -223 -56 -293 -70 -71 -14 -164 -39 -206 -55 -136 -53 -359 -194 -624 -394 -179 -135 -229 -167 -362 -231 -160 -76 -266 -148 -352 -238 -89 -94 -122 -160 -198 -400 l-60 -189 -92 6 c-57 3 -114 14 -150 27 -46 17 -92 23 -223 29 -187 9 -237 21 -321 77 -92 62 -260 264 -348 418 -44 76 -189 470 -212 575 -9 43 -14 123 -13 235 0 178 9 232 65 379 28 77 56 106 189 204 63 47 134 102 157 124 32 28 51 38 76 38 51 0 127 25 297 98 132 56 166 67 226 70 56 3 77 0 98 -13 28 -19 56 -14 56 9 0 8 21 56 47 107 67 134 137 202 262 253 76 32 106 51 161 103 94 88 145 197 239 509 41 134 72 176 165 220 82 39 188 53 310 39 68 -7 69 -8 132 -71 34 -35 67 -64 73 -64 6 0 16 21 22 46 15 57 45 77 145 100 136 30 399 42 523 24z m3574 -635 c64 -9 165 -25 225 -36 59 -11 145 -27 192 -35 180 -32 290 -78 414 -173 110 -84 180 -113 346 -145 103 -20 194 -54 265 -101 128 -83 290 -274 336 -394 31 -82 40 -193 29 -376 -12 -203 -22 -253 -65 -340 -42 -85 -99 -161 -208 -280 -98 -106 -137 -160 -202 -275 -133 -233 -235 -354 -365 -430 -41 -24 -120 -73 -175 -108 -158 -103 -248 -146 -429 -206 -189 -63 -247 -94 -295 -162 -60 -83 -61 -93 -61 -578 1 -243 5 -538 9 -656 9 -211 10 -218 51 -365 23 -82 61 -204 83 -270 37 -111 40 -129 41 -235 1 -136 -20 -223 -85 -353 -59 -117 -174 -288 -262 -389 -111 -128 -129 -163 -136 -267 -5 -79 -8 -86 -28 -89 -37 -5 -81 26 -128 91 -27 37 -85 95 -147 144 -95 77 -107 83 -148 83 -56 0 -152 -47 -316 -155 -93 -62 -126 -91 -175 -153 -34 -42 -63 -82 -66 -89 -17 -44 -23 14 -23 230 0 180 -4 256 -14 290 -8 26 -45 91 -84 144 -273 384 -297 439 -297 678 1 140 2 155 28 219 71 179 95 333 107 671 7 227 13 295 30 359 24 94 58 156 106 193 35 28 183 216 222 283 11 19 24 51 27 72 6 33 4 38 -22 54 -15 9 -57 36 -93 59 -36 23 -96 59 -135 80 -46 26 -111 79 -191 156 -66 64 -159 142 -207 173 -117 77 -211 189 -368 442 -38 62 -88 137 -111 167 -24 30 -75 97 -115 149 -96 126 -139 164 -268 243 -208 126 -257 167 -307 253 -16 29 -28 55 -26 57 2 2 34 15 71 28 202 73 304 188 387 437 18 52 56 141 86 197 29 56 65 137 80 180 14 43 49 121 77 173 28 52 58 119 66 148 15 48 20 56 56 69 187 71 272 88 413 81 77 -4 102 -10 154 -36 54 -27 65 -29 78 -17 50 45 214 82 510 114 41 5 271 9 510 10 340 1 461 -2 553 -14z m2532 -734 c22 -10 58 -37 80 -60 21 -22 43 -41 48 -41 4 0 25 13 45 30 20 16 63 41 95 56 51 23 71 26 155 26 203 -1 311 -60 343 -187 17 -67 22 -71 62 -51 19 9 50 16 68 16 48 0 117 -37 135 -72 46 -88 58 -301 24 -432 -28 -112 -95 -258 -142 -311 -52 -59 -228 -146 -403 -200 -66 -21 -142 -49 -170 -62 -49 -25 -166 -103 -254 -171 -65 -49 -135 -82 -176 -82 -41 0 -101 28 -130 60 -11 12 -33 29 -49 37 -26 14 -31 13 -55 -4 -14 -11 -45 -45 -69 -76 -51 -66 -81 -79 -120 -50 -100 74 -151 221 -174 498 -11 140 -11 140 17 235 49 168 53 184 63 301 16 172 67 293 173 413 65 72 141 110 284 140 48 10 113 4 150 -13z m-4648 -1987 c64 -18 293 -134 307 -157 8 -12 3 -28 -17 -64 -15 -26 -54 -103 -86 -170 -113 -233 -261 -382 -434 -435 -62 -19 -86 -20 -221 -15 -160 6 -234 20 -314 61 -51 27 -232 205 -232 230 0 27 78 197 125 272 96 154 193 217 402 260 120 25 320 44 383 37 19 -3 59 -11 87 -19z m3805 -241 c58 -27 164 -131 205 -203 17 -30 39 -80 48 -110 78 -256 75 -302 -30 -398 -69 -63 -229 -144 -323 -162 -78 -16 -166 -8 -218 18 -50 26 -106 86 -138 150 -87 172 -206 479 -206 532 0 64 138 142 331 185 96 22 271 15 331 -12z"/>
 <path d="M6710 6686 c0 -23 111 -91 212 -129 230 -88 483 -167 640 -201 56 -12 88 -172 88 -444 l0 -164 -22 7 c-37 12 -116 18 -154 11 -82 -16 -143 -132 -110 -211 9 -21 32 -55 51 -76 54 -60 78 -115 72 -167 -8 -75 -87 -154 -168 -167 -57 -10 -65 4 -29 50 35 44 38 77 10 122 -34 56 -63 68 -165 68 -78 0 -97 -4 -146 -27 -123 -61 -226 -188 -247 -307 -8 -47 -7 -63 15 -128 14 -42 38 -90 54 -108 55 -63 220 -131 489 -202 126 -33 147 -36 325 -40 284 -8 338 10 496 166 75 73 90 94 104 141 22 74 40 227 31 272 -11 58 -40 85 -159 143 -62 30 -120 60 -130 67 -25 18 -37 -4 -37 -70 0 -58 34 -145 70 -177 29 -27 25 -45 -10 -45 -39 0 -101 61 -118 116 -30 101 -9 182 68 266 69 76 80 96 80 142 0 25 -9 45 -31 70 -32 37 -66 48 -194 64 l-59 7 -13 85 c-6 47 -12 135 -13 195 0 69 -8 142 -19 195 -30 135 -42 126 314 236 199 62 365 131 365 153 0 26 -115 3 -318 -64 -109 -35 -246 -79 -307 -96 -105 -30 -113 -31 -184 -20 -41 6 -158 39 -260 72 -102 33 -215 70 -251 82 -36 11 -114 41 -175 67 -134 57 -165 66 -165 46z"/>
 <path d="M5245 4346 c-161 -34 -213 -51 -280 -91 -84 -51 -115 -83 -176 -187 -101 -171 -102 -192 -16 -280 110 -114 187 -143 417 -154 100 -6 136 -4 180 9 83 25 177 84 251 158 56 57 78 91 153 239 48 94 86 178 84 186 -2 8 -61 42 -131 76 l-128 61 -122 4 c-100 2 -142 -1 -232 -21z m343 -51 c28 -9 85 -32 127 -52 l76 -36 -64 -66 c-37 -38 -78 -94 -97 -131 -70 -139 -168 -273 -145 -197 14 47 17 169 6 263 -12 104 -35 167 -70 198 -11 11 -21 23 -21 28 0 14 133 9 188 -7z m-234 -508 c8 -21 7 -35 -5 -55 -18 -33 -42 -39 -74 -18 -33 22 -32 59 2 86 35 27 65 22 77 -13z"/>
 <path d="M9164 4136 c-96 -18 -136 -32 -222 -78 -40 -21 -79 -38 -86 -38 -31 0 -36 -25 -16 -83 11 -31 20 -64 20 -72 0 -9 8 -35 19 -58 10 -23 33 -82 51 -132 90 -250 166 -321 340 -319 122 1 280 84 359 189 49 65 51 85 16 221 -45 173 -134 303 -240 353 -59 28 -150 34 -241 17z m-30 -499 c29 -21 13 -74 -29 -94 -50 -24 -65 -13 -65 46 0 30 5 51 13 54 24 10 63 7 81 -6z"/>
 </g>

</svg>